<svg width="312.9599975585937px" height="99.28001708984375px" xmlns="http://www.w3.org/2000/svg" viewBox="93.52000122070314 25.359991455078124 312.9599975585937 99.28001708984375" style="background: rgba(0, 0, 0, 0) none repeat scroll 0% 0%;" preserveAspectRatio="xMidYMid"><defs><filter id="editing-extrude-glow"><feFlood flood-color="#333333" result="flood-1"></feFlood><feMorphology operator="erode" radius="1" in="SourceAlpha" result="erode"></feMorphology><feComposite operator="in" in="flood-1" in2="erode" result="comp1"></feComposite><feConvolveMatrix order="3,3" divisor="1" in="comp1" result="convolve" kernelMatrix="0 0 0 1 1 1 0 0 0"></feConvolveMatrix><feOffset dx="-3" dy="0" in="convolve" result="extrude"></feOffset><feComposite operator="in" in="flood-1" in2="extrude" result="comp-extrude"></feComposite><feFlood flood-color="#000000" result="flood-2"></feFlood><feComposite operator="in" in="flood-2" in2="SourceAlpha" result="comp2"></feComposite><feMorphology operator="dilate" radius="1" in="comp2" result="dilate"></feMorphology><feOffset dx="-4.5" dy="0" in="dilate" result="offset"></feOffset><feGaussianBlur in="offset" stdDeviation="5.8" result="blur"></feGaussianBlur><feComponentTransfer in="blur" result="shadow"><feFuncA type="linear" slope="0.8" intercept="-0.2"></feFuncA></feComponentTransfer><feMerge><feMergeNode in="shadow"></feMergeNode><feMergeNode in="comp-extrude"></feMergeNode><feMergeNode in="SourceGraphic"></feMergeNode></feMerge></filter></defs><g filter="url(#editing-extrude-glow)"><g transform="translate(142.7304244041443, 85.97000026702881)"><path d="M6.45-16.97L6.45-3.63L6.45-3.63Q6.45-1.53 6.64-1.38L6.64-1.38L6.64-1.38Q6.92-1.16 7.34-1.11L7.34-1.11L7.34-1.11Q7.75-1.06 8.86-1.06L8.86-1.06L10.64-1.06L10.64-1.06Q11.63-1.06 12.66-1.27L12.66-1.27L12.66-1.27Q13.69-1.48 14.30-1.91L14.30-1.91L14.30-1.91Q15.58-2.78 16.27-5.06L16.27-5.06L16.27-5.06Q16.31-5.25 16.70-5.25L16.70-5.25L16.70-5.25Q17.30-5.25 17.48-5.06L17.48-5.06L17.48-5.06Q17.34-4.66 17.02-3.77L17.02-3.77L17.02-3.77Q16.69-2.88 16.49-2.32L16.49-2.32L16.49-2.32Q16.30-1.77 16.09-1.06L16.09-1.06L16.09-1.06Q15.88-0.36 15.80 0.13L15.80 0.13L15.80 0.13Q14.19 0.13 10.75 0.06L10.75 0.06L10.75 0.06Q7.31 0 5.14 0L5.14 0L5.14 0Q4.38 0 3.19 0.05L3.19 0.05L3.19 0.05Q2 0.09 1.42 0.09L1.42 0.09L1.42 0.09Q1.31-0.03 1.32-0.36L1.32-0.36L1.32-0.36Q1.33-0.69 1.42-0.81L1.42-0.81L1.42-0.81Q1.89-0.81 2.70-0.95L2.70-0.95L2.70-0.95Q3.52-1.09 3.58-1.31L3.58-1.31L3.58-1.31Q3.73-1.81 3.73-3.63L3.73-3.63L3.73-16.97L3.73-16.97Q3.73-18.78 3.58-19.28L3.58-19.28L3.58-19.28Q3.52-19.50 2.70-19.64L2.70-19.64L2.70-19.64Q1.89-19.78 1.42-19.78L1.42-19.78L1.42-19.78Q1.33-19.91 1.32-20.23L1.32-20.23L1.32-20.23Q1.31-20.56 1.42-20.69L1.42-20.69L1.42-20.69Q4.63-20.53 5.11-20.53L5.11-20.53L5.11-20.53Q5.56-20.53 8.77-20.69L8.77-20.69L8.77-20.69Q8.88-20.56 8.87-20.23L8.87-20.23L8.87-20.23Q8.86-19.91 8.77-19.78L8.77-19.78L8.77-19.78Q8.30-19.78 7.48-19.64L7.48-19.64L7.48-19.64Q6.67-19.50 6.61-19.28L6.61-19.28L6.61-19.28Q6.42-18.69 6.45-16.97L6.45-16.97ZM28.55-3.25L28.55-10L28.55-10Q28.55-11.22 28.30-11.69L28.30-11.69L28.30-11.69Q27.95-12.31 26.55-12.31L26.55-12.31L26.55-12.31Q26.47-12.39 26.46-12.70L26.46-12.70L26.46-12.70Q26.45-13 26.55-13.13L26.55-13.13L26.55-13.13Q29.11-13.22 30.83-13.75L30.83-13.75L30.83-13.75Q30.94-13.75 31.05-13.45L31.05-13.45L31.05-13.45Q31.17-13.14 31.17-13L31.17-13L31.17-13Q30.95-12.56 30.95-10.97L30.95-10.97L30.95-9.53L30.95-4.41L30.95-4.41Q30.95-3.05 31.17-2.03L31.17-2.03L31.17-2.03Q31.22-1.83 31.52-1.70L31.52-1.70L31.52-1.70Q31.81-1.58 32.12-1.54L32.12-1.54L32.12-1.54Q32.42-1.50 32.71-1.48L32.71-1.48L32.71-1.48Q33-1.47 33.02-1.47L33.02-1.47L33.02-1.47Q33.11-1.42 33.11-1.13L33.11-1.13L33.11-1.13Q33.11-1.03 33.03-0.83L33.03-0.83L33.03-0.83Q32.95-0.63 32.86-0.63L32.86-0.63L32.86-0.63Q32.41-0.59 31.82-0.50L31.82-0.50L31.82-0.50Q31.23-0.41 30.73-0.28L30.73-0.28L30.73-0.28Q30.22-0.16 29.78-0.03L29.78-0.03L29.78-0.03Q29.34 0.09 29.06 0.17L29.06 0.17L28.80 0.25L28.80 0.25Q28.69 0.25 28.62 0.09L28.62 0.09L28.62 0.09Q28.55-0.06 28.55-0.25L28.55-0.25L28.55-1.69L28.48-1.84L28.48-1.84Q27.77-1.08 26.47-0.43L26.47-0.43L26.47-0.43Q25.17 0.22 24.05 0.22L24.05 0.22L24.05 0.22Q23.09 0.22 22.38-0.19L22.38-0.19L22.38-0.19Q21.66-0.59 21.24-1.20L21.24-1.20L21.24-1.20Q20.83-1.81 20.57-2.69L20.57-2.69L20.57-2.69Q20.31-3.56 20.23-4.34L20.23-4.34L20.23-4.34Q20.14-5.11 20.14-6L20.14-6L20.14-10L20.14-10Q20.14-11.22 19.89-11.69L19.89-11.69L19.89-11.69Q19.55-12.31 18.14-12.31L18.14-12.31L18.14-12.31Q18.06-12.39 18.05-12.70L18.05-12.70L18.05-12.70Q18.05-13 18.14-13.13L18.14-13.13L18.14-13.13Q20.70-13.22 22.42-13.75L22.42-13.75L22.42-13.75Q22.53-13.75 22.65-13.51L22.65-13.51L22.65-13.51Q22.77-13.27 22.77-13.13L22.77-13.13L22.77-13.13Q22.55-12.69 22.55-10.97L22.55-10.97L22.55-9.63L22.55-6.38L22.55-6.38Q22.55-3.88 23.30-2.70L23.30-2.70L23.30-2.70Q24.05-1.53 25.67-1.53L25.67-1.53L25.67-1.53Q26.69-1.53 27.63-2.10L27.63-2.10L27.63-2.10Q28.56-2.67 28.55-3.25L28.55-3.25ZM38.72-17.59L38.72-13.50L42.75-13.50L42.75-13.50Q42.91-13.50 42.91-13.16L42.91-13.16L42.91-13.16Q42.91-12.66 42.47-12.22L42.47-12.22L38.72-12.22L38.72-4.03L38.72-4.03Q38.72-1.47 40.78-1.47L40.78-1.47L40.78-1.47Q41.81-1.47 42.81-2.19L42.81-2.19L42.81-2.19Q42.91-2.14 42.91-1.97L42.91-1.97L42.91-1.97Q42.91-1.63 42.78-1.50L42.78-1.50L42.78-1.50Q42.47-1.16 42.09-0.82L42.09-0.82L42.09-0.82Q41.70-0.48 40.98-0.13L40.98-0.13L40.98-0.13Q40.27 0.22 39.56 0.22L39.56 0.22L39.56 0.22Q38.92 0.22 38.38 0.06L38.38 0.06L38.38 0.06Q37.83-0.09 37.34-0.45L37.34-0.45L37.34-0.45Q36.86-0.81 36.59-1.50L36.59-1.50L36.59-1.50Q36.31-2.19 36.31-3.16L36.31-3.16L36.31-12.22L34.50-12.22L34.50-12.22Q34.34-12.22 34.34-12.50L34.34-12.50L34.34-12.50Q34.34-12.58 34.69-12.98L34.69-12.98L34.69-12.98Q35.03-13.38 35.16-13.50L35.16-13.50L36.31-13.50L36.31-15.47L36.31-15.47Q36.56-15.77 37.03-16.27L37.03-16.27L37.03-16.27Q37.50-16.78 37.84-17.16L37.84-17.16L37.84-17.16Q38.19-17.53 38.22-17.56L38.22-17.56L38.22-17.56Q38.30-17.64 38.41-17.67L38.41-17.67L38.41-17.67Q38.53-17.70 38.63-17.68L38.63-17.68L38.63-17.68Q38.72-17.66 38.72-17.59L38.72-17.59ZM53.05-13.69L53.05-13.69L53.05-13.69Q54.06-13.69 54.77-13.42L54.77-13.42L54.77-13.42Q55.47-13.16 55.92-12.67L55.92-12.67L55.92-12.67Q56.38-12.19 56.63-11.34L56.63-11.34L56.63-11.34Q56.89-10.50 56.98-9.50L56.98-9.50L56.98-9.50Q57.08-8.50 57.08-7.06L57.08-7.06L57.08-3.63L57.08-3.63Q57.08-1.81 57.23-1.31L57.23-1.31L57.23-1.31Q57.30-1.09 58.02-0.95L58.02-0.95L58.02-0.95Q58.75-0.81 59.20-0.81L59.20-0.81L59.20-0.81Q59.30-0.69 59.30-0.36L59.30-0.36L59.30-0.36Q59.31-0.03 59.20 0.09L59.20 0.09L59.20 0.09Q56-0.06 55.86-0.06L55.86-0.06L55.86-0.06Q55.31-0.06 54.80-0.04L54.80-0.04L54.80-0.04Q54.30-0.02 53.64 0.03L53.64 0.03L53.64 0.03Q52.98 0.08 52.55 0.09L52.55 0.09L52.55 0.09Q52.44-0.03 52.45-0.36L52.45-0.36L52.45-0.36Q52.45-0.69 52.55-0.81L52.55-0.81L52.55-0.81Q53-0.81 53.73-0.95L53.73-0.95L53.73-0.95Q54.45-1.09 54.52-1.31L54.52-1.31L54.52-1.31Q54.67-1.81 54.67-3.63L54.67-3.63L54.67-6.75L54.67-6.75Q54.67-9.70 54.04-10.79L54.04-10.79L54.04-10.79Q53.41-11.88 51.61-11.88L51.61-11.88L51.61-11.88Q51.08-11.88 50.35-11.50L50.35-11.50L50.35-11.50Q49.63-11.13 49.13-10.72L49.13-10.72L49.13-10.72Q48.64-10.31 48.64-10.16L48.64-10.16L48.64-3.63L48.64-3.63Q48.64-1.81 48.80-1.31L48.80-1.31L48.80-1.31Q48.86-1.09 49.59-0.95L49.59-0.95L49.59-0.95Q50.31-0.81 50.77-0.81L50.77-0.81L50.77-0.81Q50.86-0.69 50.87-0.36L50.87-0.36L50.87-0.36Q50.88-0.03 50.77 0.09L50.77 0.09L50.77 0.09Q47.56-0.06 47.42-0.06L47.42-0.06L47.42-0.06Q46.88-0.06 46.37-0.04L46.37-0.04L46.37-0.04Q45.86-0.02 45.20 0.03L45.20 0.03L45.20 0.03Q44.55 0.08 44.11 0.09L44.11 0.09L44.11 0.09Q44-0.03 44.01-0.36L44.01-0.36L44.01-0.36Q44.02-0.69 44.11-0.81L44.11-0.81L44.11-0.81Q44.56-0.81 45.29-0.95L45.29-0.95L45.29-0.95Q46.02-1.09 46.08-1.31L46.08-1.31L46.08-1.31Q46.23-1.81 46.23-3.63L46.23-3.63L46.23-17.44L46.23-17.44Q46.23-18.69 46.08-19.06L46.08-19.06L46.08-19.06Q45.84-19.63 44.17-19.63L44.17-19.63L44.17-19.63Q44.16-19.63 44.14-19.82L44.14-19.82L44.14-19.82Q44.13-20.02 44.13-20.22L44.13-20.22L44.13-20.22Q44.14-20.42 44.20-20.44L44.20-20.44L44.20-20.44Q46.36-20.66 48.64-21.69L48.64-21.69L48.64-21.69Q48.75-21.69 48.87-21.52L48.87-21.52L48.87-21.52Q48.98-21.36 48.98-21.19L48.98-21.19L48.98-21.19Q48.64-20.19 48.64-18.47L48.64-18.47L48.64-11.41L48.64-11.41Q48.64-11.34 48.73-11.34L48.73-11.34L48.73-11.34Q48.77-11.34 48.83-11.41L48.83-11.41L48.83-11.41Q49.45-12.09 50.75-12.89L50.75-12.89L50.75-12.89Q52.05-13.69 53.05-13.69ZM65.41-1.44L65.41-1.44L65.41-1.44Q66.17-1.44 67.15-1.95L67.15-1.95L67.15-1.95Q68.13-2.45 68.13-2.72L68.13-2.72L68.13-6.97L68.13-6.97Q65.70-6.25 65.22-6.06L65.22-6.06L65.22-6.06Q64.33-5.72 63.82-5.10L63.82-5.10L63.82-5.10Q63.31-4.48 63.31-3.63L63.31-3.63L63.31-3.63Q63.31-2.75 63.92-2.09L63.92-2.09L63.92-2.09Q64.53-1.44 65.41-1.44ZM67.09-13.63L67.09-13.63L67.09-13.63Q68.45-13.63 69.48-12.38L69.48-12.38L69.48-12.38Q70.50-11.13 70.50-9.34L70.50-9.34L70.50-2.91L70.50-2.91Q70.50-1.44 71.47-1.44L71.47-1.44L71.47-1.44Q71.61-1.44 71.74-1.46L71.74-1.46L71.74-1.46Q71.88-1.48 71.97-1.52L71.97-1.52L71.97-1.52Q72.06-1.56 72.16-1.62L72.16-1.62L72.16-1.62Q72.27-1.67 72.32-1.71L72.32-1.71L72.32-1.71Q72.38-1.75 72.43-1.80L72.43-1.80L72.43-1.80Q72.48-1.84 72.50-1.84L72.50-1.84L72.50-1.84Q72.63-1.84 72.63-1.59L72.63-1.59L72.63-1.59Q72.63-1.27 72.47-1L72.47-1L72.47-1Q72.11-0.67 71.34-0.24L71.34-0.24L71.34-0.24Q70.56 0.19 70.13 0.19L70.13 0.19L70.13 0.19Q69.47 0.19 68.92-0.45L68.92-0.45L68.92-0.45Q68.38-1.08 68.22-1.84L68.22-1.84L68.22-1.84Q67.77-1.39 66.43-0.57L66.43-0.57L66.43-0.57Q65.09 0.25 64.38 0.25L64.38 0.25L64.38 0.25Q62.83 0.25 61.77-0.79L61.77-0.79L61.77-0.79Q60.72-1.83 60.72-3.34L60.72-3.34L60.72-3.34Q60.72-4.23 61.21-4.93L61.21-4.93L61.21-4.93Q61.70-5.63 62.28-5.84L62.28-5.84L62.28-5.84Q62.80-6.03 64.16-6.50L64.16-6.50L64.16-6.50Q65.52-6.97 66.43-7.30L66.43-7.30L66.43-7.30Q67.34-7.63 67.75-7.81L67.75-7.81L67.75-7.81Q67.98-7.91 68.05-8.05L68.05-8.05L68.05-8.05Q68.13-8.19 68.13-8.59L68.13-8.59L68.13-9.44L68.13-9.44Q68.13-10.55 67.34-11.49L67.34-11.49L67.34-11.49Q66.55-12.44 65.44-12.44L65.44-12.44L65.44-12.44Q64.66-12.44 64.27-11.96L64.27-11.96L64.27-11.96Q63.89-11.48 63.72-10.50L63.72-10.50L63.72-10.50Q63.45-9 62.25-9L62.25-9L62.25-9Q61.78-9 61.48-9.41L61.48-9.41L61.48-9.41Q61.19-9.81 61.19-10.31L61.19-10.31L61.19-10.31Q61.19-10.44 61.26-10.70L61.26-10.70L61.26-10.70Q61.33-10.95 61.41-11.06L61.41-11.06L61.41-11.06Q62.38-11.97 63.98-12.80L63.98-12.80L63.98-12.80Q65.58-13.63 67.09-13.63ZM83.11-13.69L83.11-13.69L83.11-13.69Q84.13-13.69 84.83-13.42L84.83-13.42L84.83-13.42Q85.53-13.16 85.98-12.67L85.98-12.67L85.98-12.67Q86.44-12.19 86.70-11.34L86.70-11.34L86.70-11.34Q86.95-10.50 87.05-9.50L87.05-9.50L87.05-9.50Q87.14-8.50 87.14-7.06L87.14-7.06L87.14-3.63L87.14-3.63Q87.14-1.81 87.30-1.31L87.30-1.31L87.30-1.31Q87.36-1.09 88.09-0.95L88.09-0.95L88.09-0.95Q88.81-0.81 89.27-0.81L89.27-0.81L89.27-0.81Q89.36-0.69 89.37-0.36L89.37-0.36L89.37-0.36Q89.38-0.03 89.27 0.09L89.27 0.09L89.27 0.09Q86.06-0.06 85.92-0.06L85.92-0.06L85.92-0.06Q85.38-0.06 84.87-0.04L84.87-0.04L84.87-0.04Q84.36-0.02 83.70 0.03L83.70 0.03L83.70 0.03Q83.05 0.08 82.61 0.09L82.61 0.09L82.61 0.09Q82.50-0.03 82.51-0.36L82.51-0.36L82.51-0.36Q82.52-0.69 82.61-0.81L82.61-0.81L82.61-0.81Q83.06-0.81 83.79-0.95L83.79-0.95L83.79-0.95Q84.52-1.09 84.58-1.31L84.58-1.31L84.58-1.31Q84.73-1.81 84.73-3.63L84.73-3.63L84.73-6.75L84.73-6.75Q84.73-9.70 84.10-10.79L84.10-10.79L84.10-10.79Q83.47-11.88 81.67-11.88L81.67-11.88L81.67-11.88Q81.14-11.88 80.41-11.50L80.41-11.50L80.41-11.50Q79.69-11.13 79.20-10.72L79.20-10.72L79.20-10.72Q78.70-10.31 78.70-10.16L78.70-10.16L78.70-3.63L78.70-3.63Q78.70-1.81 78.86-1.31L78.86-1.31L78.86-1.31Q78.92-1.09 79.65-0.95L79.65-0.95L79.65-0.95Q80.38-0.81 80.83-0.81L80.83-0.81L80.83-0.81Q80.92-0.69 80.93-0.36L80.93-0.36L80.93-0.36Q80.94-0.03 80.83 0.09L80.83 0.09L80.83 0.09Q77.63-0.06 77.48-0.06L77.48-0.06L77.48-0.06Q76.94-0.06 76.43-0.04L76.43-0.04L76.43-0.04Q75.92-0.02 75.27 0.03L75.27 0.03L75.27 0.03Q74.61 0.08 74.17 0.09L74.17 0.09L74.17 0.09Q74.06-0.03 74.07-0.36L74.07-0.36L74.07-0.36Q74.08-0.69 74.17-0.81L74.17-0.81L74.17-0.81Q74.63-0.81 75.35-0.95L75.35-0.95L75.35-0.95Q76.08-1.09 76.14-1.31L76.14-1.31L76.14-1.31Q76.30-1.81 76.30-3.63L76.30-3.63L76.30-9.31L76.30-9.31Q76.30-10.69 76.14-11.06L76.14-11.06L76.14-11.06Q76.05-11.30 75.55-11.44L75.55-11.44L75.55-11.44Q75.05-11.58 74.71-11.60L74.71-11.60L74.71-11.60Q74.38-11.63 74.11-11.63L74.11-11.63L74.11-11.63Q74.05-11.69 74.04-12L74.04-12L74.04-12Q74.03-12.31 74.11-12.44L74.11-12.44L74.11-12.44Q76.78-12.80 78.58-13.75L78.58-13.75L78.58-13.75Q78.69-13.75 78.80-13.56L78.80-13.56L78.80-13.56Q78.92-13.38 78.92-13.25L78.92-13.25L78.92-13.25Q78.73-11.94 78.73-11.47L78.73-11.47L78.73-11.47Q78.73-11.34 78.80-11.34L78.80-11.34L78.80-11.34Q78.83-11.34 78.89-11.41L78.89-11.41L78.89-11.41Q79.52-12.09 80.81-12.89L80.81-12.89L80.81-12.89Q82.11-13.69 83.11-13.69ZM98.31-13.69L98.31-13.69L98.31-13.69Q98.78-13.69 99.50-13.58L99.50-13.58L99.50-13.58Q100.22-13.47 100.47-13.38L100.47-13.38L100.47-13.38Q100.63-13.38 100.63-14.03L100.63-14.03L100.63-17.44L100.63-17.44Q100.63-18.69 100.47-19.06L100.47-19.06L100.47-19.06Q100.23-19.63 98.56-19.63L98.56-19.63L98.56-19.63Q98.55-19.63 98.53-19.82L98.53-19.82L98.53-19.82Q98.52-20.02 98.52-20.22L98.52-20.22L98.52-20.22Q98.53-20.42 98.59-20.44L98.59-20.44L98.59-20.44Q100.75-20.66 103.03-21.69L103.03-21.69L103.03-21.69Q103.14-21.69 103.26-21.52L103.26-21.52L103.26-21.52Q103.38-21.36 103.38-21.19L103.38-21.19L103.38-21.19Q103.03-20.19 103.03-18.47L103.03-18.47L103.03-5.09L103.03-5.09Q103.03-2.55 103.25-2.03L103.25-2.03L103.25-2.03Q103.34-1.84 103.64-1.72L103.64-1.72L103.64-1.72Q103.94-1.59 104.23-1.55L104.23-1.55L104.23-1.55Q104.53-1.52 104.80-1.49L104.80-1.49L104.80-1.49Q105.08-1.47 105.09-1.47L105.09-1.47L105.09-1.47Q105.19-1.42 105.19-1.09L105.19-1.09L105.19-1.09Q105.19-1 105.11-0.81L105.11-0.81L105.11-0.81Q105.03-0.63 104.94-0.63L104.94-0.63L104.94-0.63Q104.48-0.59 103.90-0.50L103.90-0.50L103.90-0.50Q103.31-0.41 102.80-0.28L102.80-0.28L102.80-0.28Q102.30-0.16 101.86-0.03L101.86-0.03L101.86-0.03Q101.44 0.09 101.16 0.17L101.16 0.17L100.88 0.25L100.88 0.25Q100.63 0.25 100.63-0.34L100.63-0.34L100.63-1.44L100.63-1.44Q100.59-1.64 100.53-1.63L100.53-1.63L100.53-1.63Q100.06-1.13 98.72-0.44L98.72-0.44L98.72-0.44Q97.38 0.25 96.38 0.25L96.38 0.25L96.38 0.25Q94.19 0.25 92.53-1.70L92.53-1.70L92.53-1.70Q90.88-3.64 90.88-6.44L90.88-6.44L90.88-6.44Q90.88-7.89 91.64-9.28L91.64-9.28L91.64-9.28Q92.41-10.67 93.54-11.61L93.54-11.61L93.54-11.61Q94.67-12.55 95.96-13.12L95.96-13.12L95.96-13.12Q97.25-13.69 98.31-13.69ZM97.31-12.38L97.31-12.38L97.31-12.38Q95.61-12.38 94.55-10.82L94.55-10.82L94.55-10.82Q93.50-9.27 93.50-7.19L93.50-7.19L93.50-7.19Q93.50-4.88 94.68-3.28L94.68-3.28L94.68-3.28Q95.86-1.69 97.91-1.69L97.91-1.69L97.91-1.69Q98.91-1.69 99.77-2.11L99.77-2.11L99.77-2.11Q100.63-2.53 100.63-2.94L100.63-2.94L100.63-10.84L100.63-10.84Q100.63-11.39 99.61-11.88L99.61-11.88L99.61-11.88Q98.59-12.38 97.31-12.38ZM113.34-12.69L113.34-12.69L113.34-12.69Q112.08-12.69 111.23-11.88L111.23-11.88L111.23-11.88Q110.39-11.06 110.05-9.89L110.05-9.89L110.05-9.89Q109.72-8.72 109.72-7.28L109.72-7.28L109.72-7.28Q109.72-5.70 110.20-4.26L110.20-4.26L110.20-4.26Q110.69-2.81 111.70-1.81L111.70-1.81L111.70-1.81Q112.72-0.81 114.06-0.81L114.06-0.81L114.06-0.81Q115.33-0.81 116.17-1.63L116.17-1.63L116.17-1.63Q117.02-2.44 117.35-3.60L117.35-3.60L117.35-3.60Q117.69-4.77 117.69-6.19L117.69-6.19L117.69-6.19Q117.69-7.75 117.20-9.21L117.20-9.21L117.20-9.21Q116.70-10.67 115.69-11.68L115.69-11.68L115.69-11.68Q114.67-12.69 113.34-12.69ZM113.69-13.72L113.69-13.72L113.69-13.72Q116.73-13.72 118.55-11.80L118.55-11.80L118.55-11.80Q120.38-9.89 120.38-6.91L120.38-6.91L120.38-6.91Q120.38-3.88 118.48-1.83L118.48-1.83L118.48-1.83Q116.58 0.22 113.75 0.22L113.75 0.22L113.75 0.22Q110.70 0.22 108.87-1.73L108.87-1.73L108.87-1.73Q107.03-3.67 107.03-6.66L107.03-6.66L107.03-6.66Q107.03-9.67 108.94-11.70L108.94-11.70L108.94-11.70Q110.84-13.72 113.69-13.72ZM137.52-16.91L137.52-16.91L137.52-3.59L137.52-3.59Q137.52-1.56 137.70-1.34L137.70-1.34L137.70-1.34Q138.02-0.91 140.27-0.91L140.27-0.91L140.27-0.91Q141.97-0.91 143.44-1.45L143.44-1.45L143.44-1.45Q144.91-1.98 146.06-3.05L146.06-3.05L146.06-3.05Q147.22-4.11 147.88-5.84L147.88-5.84L147.88-5.84Q148.55-7.56 148.55-9.78L148.55-9.78L148.55-9.78Q148.55-11.84 148.07-13.51L148.07-13.51L148.07-13.51Q147.59-15.17 146.78-16.28L146.78-16.28L146.78-16.28Q145.97-17.39 144.84-18.14L144.84-18.14L144.84-18.14Q143.72-18.89 142.47-19.23L142.47-19.23L142.47-19.23Q141.22-19.56 139.83-19.56L139.83-19.56L139.83-19.56Q137.78-19.56 137.67-19.22L137.67-19.22L137.67-19.22Q137.48-18.63 137.52-16.91ZM140.67-20.56L140.67-20.56L140.67-20.56Q143.19-20.56 145.27-19.79L145.27-19.79L145.27-19.79Q147.34-19.02 148.73-17.66L148.73-17.66L148.73-17.66Q150.13-16.31 150.88-14.45L150.88-14.45L150.88-14.45Q151.64-12.59 151.64-10.44L151.64-10.44L151.64-10.44Q151.64-8.77 151.31-7.30L151.31-7.30L151.31-7.30Q150.98-5.83 150.16-4.45L150.16-4.45L150.16-4.45Q149.34-3.06 148.09-2.08L148.09-2.08L148.09-2.08Q146.83-1.09 144.83-0.50L144.83-0.50L144.83-0.50Q142.83 0.09 140.27 0.09L140.27 0.09L132.45 0.09L132.45 0.09Q132.34-0.03 132.35-0.36L132.35-0.36L132.35-0.36Q132.36-0.69 132.45-0.81L132.45-0.81L132.45-0.81Q132.92-0.81 133.73-0.95L133.73-0.95L133.73-0.95Q134.55-1.09 134.61-1.31L134.61-1.31L134.61-1.31Q134.77-1.81 134.77-3.63L134.77-3.63L134.77-16.97L134.77-16.97Q134.77-18.78 134.61-19.28L134.61-19.28L134.61-19.28Q134.55-19.50 133.73-19.64L133.73-19.64L133.73-19.64Q132.92-19.78 132.45-19.78L132.45-19.78L132.45-19.78Q132.36-19.91 132.35-20.23L132.35-20.23L132.35-20.23Q132.34-20.56 132.45-20.69L132.45-20.69L132.45-20.69Q135.66-20.53 136.14-20.53L136.14-20.53L136.14-20.53Q136.73-20.53 138.35-20.55L138.35-20.55L138.35-20.55Q139.97-20.56 140.67-20.56ZM156.34-17.42L156.34-17.42L156.34-17.42Q155.89-17.88 155.89-18.53L155.89-18.53L155.89-18.53Q155.89-19.19 156.34-19.64L156.34-19.64L156.34-19.64Q156.80-20.09 157.45-20.09L157.45-20.09L157.45-20.09Q158.11-20.09 158.56-19.64L158.56-19.64L158.56-19.64Q159.02-19.19 159.02-18.53L159.02-18.53L159.02-18.53Q159.02-17.88 158.56-17.42L158.56-17.42L158.56-17.42Q158.11-16.97 157.45-16.97L157.45-16.97L157.45-16.97Q156.80-16.97 156.34-17.42ZM158.89-11.19L158.89-10.16L158.89-3.63L158.89-3.63Q158.89-1.81 159.05-1.31L159.05-1.31L159.05-1.31Q159.11-1.09 159.84-0.95L159.84-0.95L159.84-0.95Q160.56-0.81 161.02-0.81L161.02-0.81L161.02-0.81Q161.11-0.69 161.12-0.36L161.12-0.36L161.12-0.36Q161.13-0.03 161.02 0.09L161.02 0.09L161.02 0.09Q157.81-0.06 157.67-0.06L157.67-0.06L157.67-0.06Q157.13-0.06 156.62-0.04L156.62-0.04L156.62-0.04Q156.11-0.02 155.45 0.03L155.45 0.03L155.45 0.03Q154.80 0.08 154.36 0.09L154.36 0.09L154.36 0.09Q154.25-0.03 154.26-0.36L154.26-0.36L154.26-0.36Q154.27-0.69 154.36-0.81L154.36-0.81L154.36-0.81Q154.81-0.81 155.54-0.95L155.54-0.95L155.54-0.95Q156.27-1.09 156.33-1.31L156.33-1.31L156.33-1.31Q156.45-1.70 156.48-3.63L156.48-3.63L156.48-9.44L156.48-9.44Q156.48-10.69 156.33-11.06L156.33-11.06L156.33-11.06Q156.23-11.30 155.73-11.44L155.73-11.44L155.73-11.44Q155.23-11.58 154.90-11.60L154.90-11.60L154.90-11.60Q154.56-11.63 154.30-11.63L154.30-11.63L154.30-11.63Q154.23-11.69 154.23-12L154.23-12L154.23-12Q154.22-12.31 154.30-12.44L154.30-12.44L154.30-12.44Q156.97-12.80 158.77-13.75L158.77-13.75L158.77-13.75Q158.88-13.75 158.99-13.56L158.99-13.56L158.99-13.56Q159.11-13.38 159.11-13.25L159.11-13.25L159.11-13.25Q158.89-11.72 158.89-11.19L158.89-11.19ZM170.31-13.69L170.31-13.69L170.31-13.69Q170.78-13.69 171.50-13.58L171.50-13.58L171.50-13.58Q172.22-13.47 172.47-13.38L172.47-13.38L172.47-13.38Q172.63-13.38 172.63-14.03L172.63-14.03L172.63-17.44L172.63-17.44Q172.63-18.69 172.47-19.06L172.47-19.06L172.47-19.06Q172.23-19.63 170.56-19.63L170.56-19.63L170.56-19.63Q170.55-19.63 170.53-19.82L170.53-19.82L170.53-19.82Q170.52-20.02 170.52-20.22L170.52-20.22L170.52-20.22Q170.53-20.42 170.59-20.44L170.59-20.44L170.59-20.44Q172.75-20.66 175.03-21.69L175.03-21.69L175.03-21.69Q175.14-21.69 175.26-21.52L175.26-21.52L175.26-21.52Q175.38-21.36 175.38-21.19L175.38-21.19L175.38-21.19Q175.03-20.19 175.03-18.47L175.03-18.47L175.03-5.09L175.03-5.09Q175.03-2.55 175.25-2.03L175.25-2.03L175.25-2.03Q175.34-1.84 175.64-1.72L175.64-1.72L175.64-1.72Q175.94-1.59 176.23-1.55L176.23-1.55L176.23-1.55Q176.53-1.52 176.80-1.49L176.80-1.49L176.80-1.49Q177.08-1.47 177.09-1.47L177.09-1.47L177.09-1.47Q177.19-1.42 177.19-1.09L177.19-1.09L177.19-1.09Q177.19-1 177.11-0.81L177.11-0.81L177.11-0.81Q177.03-0.63 176.94-0.63L176.94-0.63L176.94-0.63Q176.48-0.59 175.90-0.50L175.90-0.50L175.90-0.50Q175.31-0.41 174.80-0.28L174.80-0.28L174.80-0.28Q174.30-0.16 173.86-0.03L173.86-0.03L173.86-0.03Q173.44 0.09 173.16 0.17L173.16 0.17L172.88 0.25L172.88 0.25Q172.63 0.25 172.63-0.34L172.63-0.34L172.63-1.44L172.63-1.44Q172.59-1.64 172.53-1.63L172.53-1.63L172.53-1.63Q172.06-1.13 170.72-0.44L170.72-0.44L170.72-0.44Q169.38 0.25 168.38 0.25L168.38 0.25L168.38 0.25Q166.19 0.25 164.53-1.70L164.53-1.70L164.53-1.70Q162.88-3.64 162.88-6.44L162.88-6.44L162.88-6.44Q162.88-7.89 163.64-9.28L163.64-9.28L163.64-9.28Q164.41-10.67 165.54-11.61L165.54-11.61L165.54-11.61Q166.67-12.55 167.96-13.12L167.96-13.12L167.96-13.12Q169.25-13.69 170.31-13.69ZM169.31-12.38L169.31-12.38L169.31-12.38Q167.61-12.38 166.55-10.82L166.55-10.82L166.55-10.82Q165.50-9.27 165.50-7.19L165.50-7.19L165.50-7.19Q165.50-4.88 166.68-3.28L166.68-3.28L166.68-3.28Q167.86-1.69 169.91-1.69L169.91-1.69L169.91-1.69Q170.91-1.69 171.77-2.11L171.77-2.11L171.77-2.11Q172.63-2.53 172.63-2.94L172.63-2.94L172.63-10.84L172.63-10.84Q172.63-11.39 171.61-11.88L171.61-11.88L171.61-11.88Q170.59-12.38 169.31-12.38ZM180.88-17.42L180.88-17.42L180.88-17.42Q180.42-17.88 180.42-18.53L180.42-18.53L180.42-18.53Q180.42-19.19 180.88-19.64L180.88-19.64L180.88-19.64Q181.33-20.09 181.98-20.09L181.98-20.09L181.98-20.09Q182.64-20.09 183.09-19.64L183.09-19.64L183.09-19.64Q183.55-19.19 183.55-18.53L183.55-18.53L183.55-18.53Q183.55-17.88 183.09-17.42L183.09-17.42L183.09-17.42Q182.64-16.97 181.98-16.97L181.98-16.97L181.98-16.97Q181.33-16.97 180.88-17.42ZM183.42-11.19L183.42-10.16L183.42-3.63L183.42-3.63Q183.42-1.81 183.58-1.31L183.58-1.31L183.58-1.31Q183.64-1.09 184.37-0.95L184.37-0.95L184.37-0.95Q185.09-0.81 185.55-0.81L185.55-0.81L185.55-0.81Q185.64-0.69 185.65-0.36L185.65-0.36L185.65-0.36Q185.66-0.03 185.55 0.09L185.55 0.09L185.55 0.09Q182.34-0.06 182.20-0.06L182.20-0.06L182.20-0.06Q181.66-0.06 181.15-0.04L181.15-0.04L181.15-0.04Q180.64-0.02 179.98 0.03L179.98 0.03L179.98 0.03Q179.33 0.08 178.89 0.09L178.89 0.09L178.89 0.09Q178.78-0.03 178.79-0.36L178.79-0.36L178.79-0.36Q178.80-0.69 178.89-0.81L178.89-0.81L178.89-0.81Q179.34-0.81 180.07-0.95L180.07-0.95L180.07-0.95Q180.80-1.09 180.86-1.31L180.86-1.31L180.86-1.31Q180.98-1.70 181.02-3.63L181.02-3.63L181.02-9.44L181.02-9.44Q181.02-10.69 180.86-11.06L180.86-11.06L180.86-11.06Q180.77-11.30 180.27-11.44L180.27-11.44L180.27-11.44Q179.77-11.58 179.43-11.60L179.43-11.60L179.43-11.60Q179.09-11.63 178.83-11.63L178.83-11.63L178.83-11.63Q178.77-11.69 178.76-12L178.76-12L178.76-12Q178.75-12.31 178.83-12.44L178.83-12.44L178.83-12.44Q181.50-12.80 183.30-13.75L183.30-13.75L183.30-13.75Q183.41-13.75 183.52-13.56L183.52-13.56L183.52-13.56Q183.64-13.38 183.64-13.25L183.64-13.25L183.64-13.25Q183.42-11.72 183.42-11.19L183.42-11.19ZM190.81-13.47L190.81-13.47L194.81-13.47L194.81-13.47Q196.58-13.47 198.63-13.72L198.63-13.72L198.63-13.72Q198.72-13.56 198.72-12.97L198.72-12.97L198.72-12.97Q190.44-1.19 190.44-1.09L190.44-1.09L194.81-1.09L194.81-1.09Q196.14-1.09 197.04-1.93L197.04-1.93L197.04-1.93Q197.94-2.77 198.25-3.91L198.25-3.91L198.25-3.91Q198.28-4.09 198.47-4.09L198.47-4.09L198.47-4.09Q198.66-4.09 198.91-3.98L198.91-3.98L198.91-3.98Q199.16-3.86 199.28-3.72L199.28-3.72L199.28-3.72Q198.34-1.44 197.88 0L197.88 0L187.72 0L187.72 0Q187.55-0.05 187.40-0.24L187.40-0.24L187.40-0.24Q187.25-0.44 187.25-0.63L187.25-0.63L187.25-0.63Q187.25-0.81 187.28-0.84L187.28-0.84L195.31-12.38L190.94-12.41L190.94-12.41Q190.52-12.41 190.16-12.27L190.16-12.27L190.16-12.27Q189.80-12.14 189.59-11.97L189.59-11.97L189.59-11.97Q189.38-11.80 189.18-11.52L189.18-11.52L189.18-11.52Q188.98-11.23 188.90-11.05L188.90-11.05L188.90-11.05Q188.81-10.86 188.70-10.57L188.70-10.57L188.70-10.57Q188.59-10.28 188.56-10.22L188.56-10.22L188.56-10.22Q188.52-10.13 188.30-10.03L188.30-10.03L188.30-10.03Q188.09-9.94 187.88-9.94L187.88-9.94L187.88-9.94Q187.53-9.94 187.53-10.03L187.53-10.03L187.53-10.03Q187.91-11.42 188.03-13.72L188.03-13.72L188.03-13.72Q189.69-13.47 190.81-13.47ZM206-1.44L206-1.44L206-1.44Q206.77-1.44 207.74-1.95L207.74-1.95L207.74-1.95Q208.72-2.45 208.72-2.72L208.72-2.72L208.72-6.97L208.72-6.97Q206.30-6.25 205.81-6.06L205.81-6.06L205.81-6.06Q204.92-5.72 204.41-5.10L204.41-5.10L204.41-5.10Q203.91-4.48 203.91-3.63L203.91-3.63L203.91-3.63Q203.91-2.75 204.52-2.09L204.52-2.09L204.52-2.09Q205.13-1.44 206-1.44ZM207.69-13.63L207.69-13.63L207.69-13.63Q209.05-13.63 210.07-12.38L210.07-12.38L210.07-12.38Q211.09-11.13 211.09-9.34L211.09-9.34L211.09-2.91L211.09-2.91Q211.09-1.44 212.06-1.44L212.06-1.44L212.06-1.44Q212.20-1.44 212.34-1.46L212.34-1.46L212.34-1.46Q212.47-1.48 212.56-1.52L212.56-1.52L212.56-1.52Q212.66-1.56 212.76-1.62L212.76-1.62L212.76-1.62Q212.86-1.67 212.91-1.71L212.91-1.71L212.91-1.71Q212.97-1.75 213.02-1.80L213.02-1.80L213.02-1.80Q213.08-1.84 213.09-1.84L213.09-1.84L213.09-1.84Q213.22-1.84 213.22-1.59L213.22-1.59L213.22-1.59Q213.22-1.27 213.06-1L213.06-1L213.06-1Q212.70-0.67 211.93-0.24L211.93-0.24L211.93-0.24Q211.16 0.19 210.72 0.19L210.72 0.19L210.72 0.19Q210.06 0.19 209.52-0.45L209.52-0.45L209.52-0.45Q208.97-1.08 208.81-1.84L208.81-1.84L208.81-1.84Q208.36-1.39 207.02-0.57L207.02-0.57L207.02-0.57Q205.69 0.25 204.97 0.25L204.97 0.25L204.97 0.25Q203.42 0.25 202.37-0.79L202.37-0.79L202.37-0.79Q201.31-1.83 201.31-3.34L201.31-3.34L201.31-3.34Q201.31-4.23 201.80-4.93L201.80-4.93L201.80-4.93Q202.30-5.63 202.88-5.84L202.88-5.84L202.88-5.84Q203.39-6.03 204.75-6.50L204.75-6.50L204.75-6.50Q206.11-6.97 207.02-7.30L207.02-7.30L207.02-7.30Q207.94-7.63 208.34-7.81L208.34-7.81L208.34-7.81Q208.58-7.91 208.65-8.05L208.65-8.05L208.65-8.05Q208.72-8.19 208.72-8.59L208.72-8.59L208.72-9.44L208.72-9.44Q208.72-10.55 207.93-11.49L207.93-11.49L207.93-11.49Q207.14-12.44 206.03-12.44L206.03-12.44L206.03-12.44Q205.25-12.44 204.87-11.96L204.87-11.96L204.87-11.96Q204.48-11.48 204.31-10.50L204.31-10.50L204.31-10.50Q204.05-9 202.84-9L202.84-9L202.84-9Q202.38-9 202.08-9.41L202.08-9.41L202.08-9.41Q201.78-9.81 201.78-10.31L201.78-10.31L201.78-10.31Q201.78-10.44 201.85-10.70L201.85-10.70L201.85-10.70Q201.92-10.95 202-11.06L202-11.06L202-11.06Q202.97-11.97 204.57-12.80L204.57-12.80L204.57-12.80Q206.17-13.63 207.69-13.63Z" fill="rgba(57.50633042739428%,1.3845248163571022%,96.55238850911458%,0.953)"></path></g></g><style>text {
  font-size: 64px;
  font-family: Arial Black;
  dominant-baseline: central;
  text-anchor: middle;
}</style></svg>